<mxfile host="app.diagrams.net" agent="Mozilla/5.0 (Windows NT 10.0; Win64; x64) AppleWebKit/537.36 (KHTML, like Gecko) Chrome/130.0.0.0 Safari/537.36" version="24.8.6">
  <diagram id="Yogtr6XWgJhvYqFCGfsQ" name="Trang-1">
    <mxGraphModel dx="1050" dy="557" grid="1" gridSize="10" guides="1" tooltips="1" connect="1" arrows="1" fold="1" page="1" pageScale="1" pageWidth="827" pageHeight="1169" math="0" shadow="0">
      <root>
        <mxCell id="0" />
        <mxCell id="1" parent="0" />
        <mxCell id="qdsuwbpQMufxJ76Yj2xc-3" value="" style="edgeStyle=orthogonalEdgeStyle;rounded=0;orthogonalLoop=1;jettySize=auto;html=1;" edge="1" parent="1" source="qdsuwbpQMufxJ76Yj2xc-1" target="qdsuwbpQMufxJ76Yj2xc-2">
          <mxGeometry relative="1" as="geometry" />
        </mxCell>
        <mxCell id="qdsuwbpQMufxJ76Yj2xc-1" value="Star&amp;nbsp;" style="ellipse;whiteSpace=wrap;html=1;" vertex="1" parent="1">
          <mxGeometry x="310" y="130" width="120" height="80" as="geometry" />
        </mxCell>
        <mxCell id="qdsuwbpQMufxJ76Yj2xc-5" value="" style="edgeStyle=orthogonalEdgeStyle;rounded=0;orthogonalLoop=1;jettySize=auto;html=1;" edge="1" parent="1" source="qdsuwbpQMufxJ76Yj2xc-2" target="qdsuwbpQMufxJ76Yj2xc-4">
          <mxGeometry relative="1" as="geometry" />
        </mxCell>
        <mxCell id="qdsuwbpQMufxJ76Yj2xc-2" value="nhập giá trị n" style="whiteSpace=wrap;html=1;" vertex="1" parent="1">
          <mxGeometry x="310" y="300" width="120" height="60" as="geometry" />
        </mxCell>
        <mxCell id="qdsuwbpQMufxJ76Yj2xc-7" value="" style="edgeStyle=orthogonalEdgeStyle;rounded=0;orthogonalLoop=1;jettySize=auto;html=1;" edge="1" parent="1" source="qdsuwbpQMufxJ76Yj2xc-4" target="qdsuwbpQMufxJ76Yj2xc-6">
          <mxGeometry relative="1" as="geometry" />
        </mxCell>
        <mxCell id="qdsuwbpQMufxJ76Yj2xc-9" value="" style="edgeStyle=orthogonalEdgeStyle;rounded=0;orthogonalLoop=1;jettySize=auto;html=1;" edge="1" parent="1" source="qdsuwbpQMufxJ76Yj2xc-4" target="qdsuwbpQMufxJ76Yj2xc-8">
          <mxGeometry relative="1" as="geometry" />
        </mxCell>
        <mxCell id="qdsuwbpQMufxJ76Yj2xc-4" value="kiểm tra giá trị&amp;nbsp; &amp;gt;=5" style="whiteSpace=wrap;html=1;" vertex="1" parent="1">
          <mxGeometry x="310" y="440" width="120" height="60" as="geometry" />
        </mxCell>
        <mxCell id="qdsuwbpQMufxJ76Yj2xc-11" value="" style="edgeStyle=orthogonalEdgeStyle;rounded=0;orthogonalLoop=1;jettySize=auto;html=1;" edge="1" parent="1" source="qdsuwbpQMufxJ76Yj2xc-6" target="qdsuwbpQMufxJ76Yj2xc-10">
          <mxGeometry relative="1" as="geometry" />
        </mxCell>
        <mxCell id="qdsuwbpQMufxJ76Yj2xc-6" value="in đạt" style="whiteSpace=wrap;html=1;" vertex="1" parent="1">
          <mxGeometry x="190" y="570" width="120" height="60" as="geometry" />
        </mxCell>
        <mxCell id="qdsuwbpQMufxJ76Yj2xc-13" value="" style="edgeStyle=orthogonalEdgeStyle;rounded=0;orthogonalLoop=1;jettySize=auto;html=1;" edge="1" parent="1" source="qdsuwbpQMufxJ76Yj2xc-8" target="qdsuwbpQMufxJ76Yj2xc-12">
          <mxGeometry relative="1" as="geometry" />
        </mxCell>
        <mxCell id="qdsuwbpQMufxJ76Yj2xc-8" value="in không đạt&amp;nbsp;" style="whiteSpace=wrap;html=1;" vertex="1" parent="1">
          <mxGeometry x="420" y="570" width="120" height="60" as="geometry" />
        </mxCell>
        <mxCell id="qdsuwbpQMufxJ76Yj2xc-10" value="" style="ellipse;whiteSpace=wrap;html=1;" vertex="1" parent="1">
          <mxGeometry x="310" y="800" width="80" height="80" as="geometry" />
        </mxCell>
        <mxCell id="qdsuwbpQMufxJ76Yj2xc-12" value="End" style="ellipse;whiteSpace=wrap;html=1;" vertex="1" parent="1">
          <mxGeometry x="260" y="800" width="180" height="80" as="geometry" />
        </mxCell>
      </root>
    </mxGraphModel>
  </diagram>
</mxfile>
